<mxfile host="app.diagrams.net" modified="2020-07-29T18:13:44.859Z" agent="5.0 (Windows NT 10.0; Win64; x64) AppleWebKit/537.36 (KHTML, like Gecko) Chrome/84.0.4147.89 Safari/537.36" etag="n4assExvu0rNYK1wjCRq" version="13.5.4" type="github">
  <diagram id="_Im-4xMlL6aWV5HzOc-_" name="Page-1">
    <mxGraphModel dx="1692" dy="1585" grid="1" gridSize="10" guides="1" tooltips="1" connect="1" arrows="1" fold="1" page="1" pageScale="1" pageWidth="827" pageHeight="1169" math="0" shadow="0">
      <root>
        <mxCell id="0" />
        <mxCell id="1" parent="0" />
        <mxCell id="bqrMlwqoGC4SUkz15Rwk-1" value="" style="rounded=1;whiteSpace=wrap;html=1;" parent="1" vertex="1">
          <mxGeometry x="-20" y="-1130" width="810" height="1120" as="geometry" />
        </mxCell>
        <mxCell id="HFhVNKd7DeOQUF5McRIL-2" value="" style="rounded=1;whiteSpace=wrap;html=1;fillColor=#008a00;strokeColor=#005700;fontColor=#ffffff;" parent="1" vertex="1">
          <mxGeometry x="80" y="-1085" width="100" height="30" as="geometry" />
        </mxCell>
        <mxCell id="HFhVNKd7DeOQUF5McRIL-3" value="&lt;font color=&quot;#ffff00&quot;&gt;India Data&lt;/font&gt;" style="text;html=1;align=center;verticalAlign=middle;whiteSpace=wrap;rounded=0;" parent="1" vertex="1">
          <mxGeometry x="90" y="-1085" width="80" height="30" as="geometry" />
        </mxCell>
        <mxCell id="HFhVNKd7DeOQUF5McRIL-4" value="" style="rounded=1;whiteSpace=wrap;html=1;fillColor=#0050ef;strokeColor=#001DBC;fontColor=#ffffff;" parent="1" vertex="1">
          <mxGeometry x="240" y="-1085" width="100" height="30" as="geometry" />
        </mxCell>
        <mxCell id="HFhVNKd7DeOQUF5McRIL-7" value="&lt;b&gt;&lt;font color=&quot;#ff3333&quot;&gt;Global Data&lt;/font&gt;&lt;/b&gt;" style="text;html=1;strokeColor=none;fillColor=none;align=center;verticalAlign=middle;whiteSpace=wrap;rounded=0;" parent="1" vertex="1">
          <mxGeometry x="240" y="-1080" width="100" height="20" as="geometry" />
        </mxCell>
        <mxCell id="HFhVNKd7DeOQUF5McRIL-9" value="" style="rounded=1;whiteSpace=wrap;html=1;fillColor=#f5f5f5;strokeColor=#666666;fontColor=#333333;" parent="1" vertex="1">
          <mxGeometry x="447.5" y="-1085" width="280" height="30" as="geometry" />
        </mxCell>
        <mxCell id="HFhVNKd7DeOQUF5McRIL-13" value="&lt;font color=&quot;#0000ff&quot;&gt;Search Bar By Statewise and District&lt;/font&gt;" style="text;html=1;strokeColor=none;fillColor=none;align=center;verticalAlign=middle;whiteSpace=wrap;rounded=0;" parent="1" vertex="1">
          <mxGeometry x="450" y="-1080" width="270" height="20" as="geometry" />
        </mxCell>
        <mxCell id="HFhVNKd7DeOQUF5McRIL-14" value="" style="shape=image;html=1;verticalAlign=top;verticalLabelPosition=bottom;labelBackgroundColor=#ffffff;imageAspect=0;aspect=fixed;image=https://cdn4.iconfinder.com/data/icons/small-n-flat/24/map-128.png" parent="1" vertex="1">
          <mxGeometry x="30" y="-920" width="410" height="410" as="geometry" />
        </mxCell>
        <mxCell id="HFhVNKd7DeOQUF5McRIL-15" value="" style="shape=image;html=1;verticalAlign=top;verticalLabelPosition=bottom;labelBackgroundColor=#ffffff;imageAspect=0;aspect=fixed;image=https://cdn3.iconfinder.com/data/icons/flags-37/300/india-national-world-128.png" parent="1" vertex="1">
          <mxGeometry x="30" y="-1090" width="40" height="40" as="geometry" />
        </mxCell>
        <mxCell id="HFhVNKd7DeOQUF5McRIL-16" value="" style="html=1;verticalLabelPosition=bottom;align=center;labelBackgroundColor=#ffffff;verticalAlign=top;strokeWidth=2;strokeColor=#0080F0;shadow=0;dashed=0;shape=mxgraph.ios7.icons.globe;" parent="1" vertex="1">
          <mxGeometry x="200" y="-1085" width="30" height="30" as="geometry" />
        </mxCell>
        <mxCell id="HFhVNKd7DeOQUF5McRIL-37" value="" style="rounded=1;whiteSpace=wrap;html=1;" parent="1" vertex="1">
          <mxGeometry x="40" y="-1030" width="120" height="110" as="geometry" />
        </mxCell>
        <mxCell id="HFhVNKd7DeOQUF5McRIL-40" value="&lt;font color=&quot;#ff0000&quot;&gt;Active Cases&lt;/font&gt;" style="text;html=1;strokeColor=#C73500;align=center;verticalAlign=middle;whiteSpace=wrap;rounded=0;fontColor=#ffffff;fillColor=#33FFFF;" parent="1" vertex="1">
          <mxGeometry x="50" y="-1030" width="90" height="20" as="geometry" />
        </mxCell>
        <mxCell id="HFhVNKd7DeOQUF5McRIL-42" value="" style="fillColor=#10739E;strokeColor=none;" parent="1" vertex="1">
          <mxGeometry x="50" y="-995" width="30" height="70" as="geometry" />
        </mxCell>
        <mxCell id="HFhVNKd7DeOQUF5McRIL-43" value="" style="shape=mxgraph.arrows2.arrow;dy=0.4;dx=16;notch=0;direction=north;fillColor=#1699D3;strokeColor=none;" parent="HFhVNKd7DeOQUF5McRIL-42" vertex="1">
          <mxGeometry x="3" y="21" width="24" height="14" as="geometry" />
        </mxCell>
        <mxCell id="HFhVNKd7DeOQUF5McRIL-44" value="Label" style="text;html=1;align=center;verticalAlign=middle;whiteSpace=wrap;fontColor=#FFFFFF;fontSize=10;" parent="HFhVNKd7DeOQUF5McRIL-42" vertex="1">
          <mxGeometry width="30" height="14" as="geometry" />
        </mxCell>
        <mxCell id="HFhVNKd7DeOQUF5McRIL-45" value="" style="fillColor=#F2931E;strokeColor=none;" parent="1" vertex="1">
          <mxGeometry x="80" y="-975" width="35" height="50" as="geometry" />
        </mxCell>
        <mxCell id="HFhVNKd7DeOQUF5McRIL-57" style="edgeStyle=orthogonalEdgeStyle;rounded=0;orthogonalLoop=1;jettySize=auto;html=1;exitX=1;exitY=0.5;exitDx=0;exitDy=0;exitPerimeter=0;entryX=0.5;entryY=1;entryDx=0;entryDy=0;" parent="HFhVNKd7DeOQUF5McRIL-45" source="HFhVNKd7DeOQUF5McRIL-46" target="HFhVNKd7DeOQUF5McRIL-45" edge="1">
          <mxGeometry relative="1" as="geometry" />
        </mxCell>
        <mxCell id="HFhVNKd7DeOQUF5McRIL-46" value="" style="shape=mxgraph.arrows2.arrow;dy=0.4;dx=16;notch=0;direction=south;fillColor=#F5AB50;strokeColor=none;" parent="HFhVNKd7DeOQUF5McRIL-45" vertex="1">
          <mxGeometry x="3.5" width="28" height="33.33333333333333" as="geometry" />
        </mxCell>
        <mxCell id="HFhVNKd7DeOQUF5McRIL-47" value="Label" style="text;html=1;align=center;verticalAlign=middle;whiteSpace=wrap;fontColor=#FFFFFF;fontSize=10;" parent="HFhVNKd7DeOQUF5McRIL-45" vertex="1">
          <mxGeometry width="35" height="8.333333333333332" as="geometry" />
        </mxCell>
        <mxCell id="HFhVNKd7DeOQUF5McRIL-48" value="" style="fillColor=#AE4132;strokeColor=none;" parent="1" vertex="1">
          <mxGeometry x="115" y="-1010" width="30" height="90" as="geometry" />
        </mxCell>
        <mxCell id="HFhVNKd7DeOQUF5McRIL-49" value="" style="shape=mxgraph.arrows2.arrow;dy=1;dx=2.62;notch=0;direction=north;fillColor=#E85642;strokeColor=none;" parent="HFhVNKd7DeOQUF5McRIL-48" vertex="1">
          <mxGeometry x="3" y="55.38461538461539" width="24" height="34.61538461538461" as="geometry" />
        </mxCell>
        <mxCell id="HFhVNKd7DeOQUF5McRIL-50" value="Label" style="text;html=1;align=center;verticalAlign=middle;whiteSpace=wrap;fontColor=#FFFFFF;fontSize=10;" parent="HFhVNKd7DeOQUF5McRIL-48" vertex="1">
          <mxGeometry y="13.85" width="30" height="16.15" as="geometry" />
        </mxCell>
        <mxCell id="HFhVNKd7DeOQUF5McRIL-38" value="" style="rounded=1;whiteSpace=wrap;html=1;" parent="1" vertex="1">
          <mxGeometry x="165" y="-1030" width="105" height="110" as="geometry" />
        </mxCell>
        <mxCell id="HFhVNKd7DeOQUF5McRIL-64" value="&lt;font color=&quot;#00ff00&quot;&gt;Recovered Cases&lt;/font&gt;" style="text;html=1;strokeColor=#6D1F00;fillColor=#a0522d;align=center;verticalAlign=middle;whiteSpace=wrap;rounded=0;fontColor=#ffffff;" parent="1" vertex="1">
          <mxGeometry x="162.5" y="-1030" width="110" height="20" as="geometry" />
        </mxCell>
        <mxCell id="HFhVNKd7DeOQUF5McRIL-65" value="" style="fillColor=#10739E;strokeColor=none;" parent="1" vertex="1">
          <mxGeometry x="170" y="-995" width="30" height="70" as="geometry" />
        </mxCell>
        <mxCell id="HFhVNKd7DeOQUF5McRIL-66" value="" style="shape=mxgraph.arrows2.arrow;dy=0.4;dx=16;notch=0;direction=north;fillColor=#1699D3;strokeColor=none;" parent="HFhVNKd7DeOQUF5McRIL-65" vertex="1">
          <mxGeometry x="3" y="21" width="24" height="49" as="geometry" />
        </mxCell>
        <mxCell id="HFhVNKd7DeOQUF5McRIL-67" value="Label" style="text;html=1;align=center;verticalAlign=middle;whiteSpace=wrap;fontColor=#FFFFFF;fontSize=10;" parent="HFhVNKd7DeOQUF5McRIL-65" vertex="1">
          <mxGeometry width="30" height="14" as="geometry" />
        </mxCell>
        <mxCell id="HFhVNKd7DeOQUF5McRIL-68" value="" style="fillColor=#F2931E;strokeColor=none;" parent="1" vertex="1">
          <mxGeometry x="200" y="-995" width="30" height="70" as="geometry" />
        </mxCell>
        <mxCell id="HFhVNKd7DeOQUF5McRIL-69" value="" style="shape=mxgraph.arrows2.arrow;dy=0.4;dx=16;notch=0;direction=south;fillColor=#F5AB50;strokeColor=none;" parent="HFhVNKd7DeOQUF5McRIL-68" vertex="1">
          <mxGeometry width="24" height="50" as="geometry" />
        </mxCell>
        <mxCell id="HFhVNKd7DeOQUF5McRIL-70" value="Label" style="text;html=1;align=center;verticalAlign=middle;whiteSpace=wrap;fontColor=#FFFFFF;fontSize=10;" parent="HFhVNKd7DeOQUF5McRIL-68" vertex="1">
          <mxGeometry width="30" height="11.666666666666668" as="geometry" />
        </mxCell>
        <mxCell id="HFhVNKd7DeOQUF5McRIL-71" value="" style="fillColor=#AE4132;strokeColor=none;" parent="1" vertex="1">
          <mxGeometry x="230" y="-995" width="30" height="70" as="geometry" />
        </mxCell>
        <mxCell id="HFhVNKd7DeOQUF5McRIL-72" value="" style="shape=mxgraph.arrows2.arrow;dy=0.4;dx=16;notch=0;direction=north;fillColor=#E85642;strokeColor=none;" parent="HFhVNKd7DeOQUF5McRIL-71" vertex="1">
          <mxGeometry x="3" y="43.07692307692307" width="24" height="26.923076923076923" as="geometry" />
        </mxCell>
        <mxCell id="HFhVNKd7DeOQUF5McRIL-73" value="Label" style="text;html=1;align=center;verticalAlign=middle;whiteSpace=wrap;fontColor=#FFFFFF;fontSize=10;" parent="HFhVNKd7DeOQUF5McRIL-71" vertex="1">
          <mxGeometry width="30" height="10.769230769230768" as="geometry" />
        </mxCell>
        <mxCell id="HFhVNKd7DeOQUF5McRIL-83" value="" style="rounded=1;whiteSpace=wrap;html=1;" parent="1" vertex="1">
          <mxGeometry x="280" y="-1030" width="110" height="110" as="geometry" />
        </mxCell>
        <mxCell id="HFhVNKd7DeOQUF5McRIL-84" value="&lt;font color=&quot;#ff0080&quot;&gt;Deaths&lt;/font&gt;" style="text;html=1;strokeColor=none;fillColor=none;align=center;verticalAlign=middle;whiteSpace=wrap;rounded=0;" parent="1" vertex="1">
          <mxGeometry x="310" y="-1030" width="40" height="20" as="geometry" />
        </mxCell>
        <mxCell id="HFhVNKd7DeOQUF5McRIL-136" value="" style="fillColor=#AE4132;strokeColor=none;" parent="1" vertex="1">
          <mxGeometry x="290" y="-1010" width="30" height="90" as="geometry" />
        </mxCell>
        <mxCell id="HFhVNKd7DeOQUF5McRIL-137" value="" style="shape=mxgraph.arrows2.arrow;dy=0.4;dx=16;notch=0;direction=north;fillColor=#E85642;strokeColor=none;" parent="HFhVNKd7DeOQUF5McRIL-136" vertex="1">
          <mxGeometry x="3" y="55.38461538461539" width="24" height="34.61538461538461" as="geometry" />
        </mxCell>
        <mxCell id="HFhVNKd7DeOQUF5McRIL-138" value="Label" style="text;html=1;align=center;verticalAlign=middle;whiteSpace=wrap;fontColor=#FFFFFF;fontSize=10;" parent="HFhVNKd7DeOQUF5McRIL-136" vertex="1">
          <mxGeometry width="30" height="13.846153846153847" as="geometry" />
        </mxCell>
        <mxCell id="HFhVNKd7DeOQUF5McRIL-139" value="" style="fillColor=#12AAB5;strokeColor=none;" parent="1" vertex="1">
          <mxGeometry x="320" y="-1000" width="30" height="80" as="geometry" />
        </mxCell>
        <mxCell id="HFhVNKd7DeOQUF5McRIL-140" value="" style="shape=mxgraph.arrows2.arrow;dy=0.4;dx=16;notch=0;direction=south;fillColor=#64BBE2;strokeColor=none;" parent="HFhVNKd7DeOQUF5McRIL-139" vertex="1">
          <mxGeometry x="3" width="24" height="30" as="geometry" />
        </mxCell>
        <mxCell id="HFhVNKd7DeOQUF5McRIL-141" value="Label" style="text;html=1;align=center;verticalAlign=middle;whiteSpace=wrap;fontColor=#FFFFFF;fontSize=10;" parent="HFhVNKd7DeOQUF5McRIL-139" vertex="1">
          <mxGeometry width="30" height="20" as="geometry" />
        </mxCell>
        <mxCell id="HFhVNKd7DeOQUF5McRIL-142" value="" style="fillColor=#23445D;strokeColor=none;" parent="1" vertex="1">
          <mxGeometry x="350" y="-990" width="30" height="70" as="geometry" />
        </mxCell>
        <mxCell id="HFhVNKd7DeOQUF5McRIL-143" value="" style="shape=mxgraph.arrows2.arrow;dy=0.4;dx=16;notch=0;direction=north;fillColor=#2F5B7C;strokeColor=none;" parent="HFhVNKd7DeOQUF5McRIL-142" vertex="1">
          <mxGeometry x="3" y="10" width="24" height="60" as="geometry" />
        </mxCell>
        <mxCell id="HFhVNKd7DeOQUF5McRIL-144" value="Label" style="text;html=1;align=center;verticalAlign=middle;whiteSpace=wrap;fontColor=#FFFFFF;fontSize=10;" parent="HFhVNKd7DeOQUF5McRIL-142" vertex="1">
          <mxGeometry width="30" height="20" as="geometry" />
        </mxCell>
        <mxCell id="HFhVNKd7DeOQUF5McRIL-147" value="" style="rounded=1;whiteSpace=wrap;html=1;" parent="1" vertex="1">
          <mxGeometry x="430" y="-1030" width="330" height="510" as="geometry" />
        </mxCell>
        <mxCell id="HFhVNKd7DeOQUF5McRIL-148" value="State" style="text;html=1;strokeColor=none;fillColor=none;align=center;verticalAlign=middle;whiteSpace=wrap;rounded=0;" parent="1" vertex="1">
          <mxGeometry x="450" y="-1005" width="40" height="15" as="geometry" />
        </mxCell>
        <mxCell id="HFhVNKd7DeOQUF5McRIL-150" value="District" style="text;html=1;strokeColor=none;fillColor=none;align=center;verticalAlign=middle;whiteSpace=wrap;rounded=0;" parent="1" vertex="1">
          <mxGeometry x="500" y="-1007.5" width="40" height="20" as="geometry" />
        </mxCell>
        <mxCell id="HFhVNKd7DeOQUF5McRIL-151" value="Cases" style="text;html=1;strokeColor=none;fillColor=none;align=center;verticalAlign=middle;whiteSpace=wrap;rounded=0;" parent="1" vertex="1">
          <mxGeometry x="550" y="-1007.5" width="40" height="20" as="geometry" />
        </mxCell>
        <mxCell id="HFhVNKd7DeOQUF5McRIL-152" value="Recovered" style="text;html=1;strokeColor=none;fillColor=none;align=center;verticalAlign=middle;whiteSpace=wrap;rounded=0;" parent="1" vertex="1">
          <mxGeometry x="610" y="-1007.5" width="40" height="20" as="geometry" />
        </mxCell>
        <mxCell id="HFhVNKd7DeOQUF5McRIL-154" value="Deaths" style="text;html=1;strokeColor=none;fillColor=none;align=center;verticalAlign=middle;whiteSpace=wrap;rounded=0;" parent="1" vertex="1">
          <mxGeometry x="670" y="-1007.5" width="40" height="20" as="geometry" />
        </mxCell>
        <mxCell id="HFhVNKd7DeOQUF5McRIL-156" value="" style="rounded=1;whiteSpace=wrap;html=1;" parent="1" vertex="1">
          <mxGeometry x="490" y="-430" width="195" height="150" as="geometry" />
        </mxCell>
        <mxCell id="HFhVNKd7DeOQUF5McRIL-158" value="" style="rounded=1;whiteSpace=wrap;html=1;" parent="1" vertex="1">
          <mxGeometry x="67.5" y="-430" width="205" height="150" as="geometry" />
        </mxCell>
        <mxCell id="HFhVNKd7DeOQUF5McRIL-159" value="" style="rounded=1;whiteSpace=wrap;html=1;" parent="1" vertex="1">
          <mxGeometry x="290" y="-430" width="180" height="150" as="geometry" />
        </mxCell>
        <mxCell id="HFhVNKd7DeOQUF5McRIL-160" value="TOP 5 CORONA EFFECTED STATES WITH TOTAL CASES,RECOVERED,DEATHS" style="text;html=1;strokeColor=none;fillColor=none;align=center;verticalAlign=middle;whiteSpace=wrap;rounded=0;" parent="1" vertex="1">
          <mxGeometry x="90" y="-410" width="150" height="90" as="geometry" />
        </mxCell>
        <mxCell id="HFhVNKd7DeOQUF5McRIL-161" value="Total cases,recoverd,deaths(Pie diagram)" style="text;html=1;strokeColor=none;fillColor=none;align=center;verticalAlign=middle;whiteSpace=wrap;rounded=0;" parent="1" vertex="1">
          <mxGeometry x="290" y="-410" width="180" height="80" as="geometry" />
        </mxCell>
        <mxCell id="HFhVNKd7DeOQUF5McRIL-162" value="TOTAL&amp;nbsp; TESTED&amp;nbsp;&lt;br&gt;ACROSS INDIA" style="text;html=1;strokeColor=none;fillColor=none;align=center;verticalAlign=middle;whiteSpace=wrap;rounded=0;" parent="1" vertex="1">
          <mxGeometry x="517.5" y="-380" width="140" height="20" as="geometry" />
        </mxCell>
        <mxCell id="HFhVNKd7DeOQUF5McRIL-163" style="edgeStyle=orthogonalEdgeStyle;rounded=0;orthogonalLoop=1;jettySize=auto;html=1;exitX=0.5;exitY=1;exitDx=0;exitDy=0;" parent="1" source="HFhVNKd7DeOQUF5McRIL-158" target="HFhVNKd7DeOQUF5McRIL-158" edge="1">
          <mxGeometry relative="1" as="geometry" />
        </mxCell>
        <mxCell id="HFhVNKd7DeOQUF5McRIL-164" value="" style="ellipse;whiteSpace=wrap;html=1;" parent="1" vertex="1">
          <mxGeometry x="320" y="-240" width="120" height="80" as="geometry" />
        </mxCell>
        <mxCell id="HFhVNKd7DeOQUF5McRIL-165" value="Donate Now" style="text;html=1;strokeColor=none;fillColor=none;align=center;verticalAlign=middle;whiteSpace=wrap;rounded=0;" parent="1" vertex="1">
          <mxGeometry x="360" y="-210" width="40" height="20" as="geometry" />
        </mxCell>
        <mxCell id="HFhVNKd7DeOQUF5McRIL-166" value="" style="rounded=1;whiteSpace=wrap;html=1;" parent="1" vertex="1">
          <mxGeometry x="70" y="-260" width="210" height="200" as="geometry" />
        </mxCell>
        <mxCell id="HFhVNKd7DeOQUF5McRIL-167" value="Republic News,etc API&lt;br&gt;On Latest Covid19 Update" style="text;html=1;strokeColor=none;fillColor=none;align=center;verticalAlign=middle;whiteSpace=wrap;rounded=0;" parent="1" vertex="1">
          <mxGeometry x="120" y="-240" width="110" height="130" as="geometry" />
        </mxCell>
        <mxCell id="HFhVNKd7DeOQUF5McRIL-168" value="" style="rounded=1;whiteSpace=wrap;html=1;" parent="1" vertex="1">
          <mxGeometry x="490" y="-250" width="200" height="180" as="geometry" />
        </mxCell>
        <mxCell id="HFhVNKd7DeOQUF5McRIL-169" value="Twitter API on #covid19" style="text;html=1;strokeColor=none;fillColor=none;align=center;verticalAlign=middle;whiteSpace=wrap;rounded=0;" parent="1" vertex="1">
          <mxGeometry x="510" y="-210" width="130" height="80" as="geometry" />
        </mxCell>
        <mxCell id="HFhVNKd7DeOQUF5McRIL-171" value="" style="ellipse;whiteSpace=wrap;html=1;" parent="1" vertex="1">
          <mxGeometry x="325" y="-150" width="120" height="80" as="geometry" />
        </mxCell>
        <mxCell id="HFhVNKd7DeOQUF5McRIL-172" value="COVID19&lt;br&gt;Test Centres&lt;br&gt;Near You" style="text;html=1;strokeColor=none;fillColor=none;align=center;verticalAlign=middle;whiteSpace=wrap;rounded=0;" parent="1" vertex="1">
          <mxGeometry x="365" y="-120" width="40" height="20" as="geometry" />
        </mxCell>
        <mxCell id="HFhVNKd7DeOQUF5McRIL-173" value="About Developers and social media links" style="rounded=1;whiteSpace=wrap;html=1;" parent="1" vertex="1">
          <mxGeometry x="80" y="-50" width="610" height="30" as="geometry" />
        </mxCell>
      </root>
    </mxGraphModel>
  </diagram>
</mxfile>
